<svg xmlns="http://www.w3.org/2000/svg" viewBox="0 0 456.27 157.02"><title>courage</title><g id="Layer_2" data-name="Layer 2"><g id="Layer_1-2" data-name="Layer 1"><path d="M49.92,98a22.37,22.37,0,0,1-2.76,3c-5.54,4-11,8.36-16.74,11.77-7.9,4.7-16.13,4.35-24.28,1.12-3.6-1.48-6.09-6.52-6.14-12A81.13,81.13,0,0,1,6.81,68.52c4-9.2,7.88-18.49,11.85-27.71a63.68,63.68,0,0,1,9.88-16.2c2-2.3,3.34-5.58,5.22-8.06C38.24,10.63,42.54,4.18,48.28.8,50.35-.42,53,.12,55.35.13c.54,0,1.61,1.38,1.54,1.68a10.54,10.54,0,0,1-1.55,3.84c-3.41,4.33-7,8.38-10.4,12.73a96.07,96.07,0,0,0-7.56,10.56A215.71,215.71,0,0,0,26.45,49.19c-4,8.9-7.77,18.15-11,27.69C13.13,83.79,11.28,91.23,12,99.3c.43,5,2.23,7.74,5.78,7,4.19-.82,8.29-2.52,12.41-3.94s8.24-3,12.37-4.47a33.28,33.28,0,0,1,4.7-1.17,11,11,0,0,1,2.29,0C49.66,97.13,49.79,97.55,49.92,98Z"/><path d="M368.19,88.08a1.17,1.17,0,0,0,1.5.68l.17-.08c5.51-3.26,10.45-8.1,16.44-9.64a6.48,6.48,0,0,1-1,1.82q-7,5.67-14,11.22c-1.27,1-1.8,2.16-1.65,4.46.66,10.09-1.7,19.19-5.21,27.64-3.81,9.17-3.54,10.93-8.08,17.94-1.45,1.58-7.59,9-9.19,10.35a41.13,41.13,0,0,1-3.63,2.14c-4,2.29-8,3.83-12.1.42-1.65-1.38-2.57-3.39-2.73-6.29-.4-7.63,1.89-14,4.87-19.7a103.94,103.94,0,0,1,19.32-25.92c2.78-2.76,5.69-5.23,8.54-7.83,1.62-1.47,1.9-2.3.89-4.07a1.17,1.17,0,0,0-1.61-.42,1.23,1.23,0,0,0-.33.28c-1.62,2.07-6,6.77-5,5.29-1,1.48,1-1,0,0-3.57,3.5-7.47,5.74-11.86,6.25-4,.45-7.42-.62-10.15-5.09-1.05-1.71-2.66-2.73-2.4-5.67.35-3.92.2-7.86,2-11.35,3-5.74,7.47-8.64,11.59-12.19A16.89,16.89,0,0,1,356.2,64c4.65,0,10.1,6.22,9.4,13.59C365.22,81.79,366.94,84.69,368.19,88.08Zm-4.11,11.36a13.38,13.38,0,0,0-1.63,1.29c-6.2,7-12.6,13.8-18.51,21.32-3.17,4-5.43,9.48-8.23,14.12a23.93,23.93,0,0,0-3.39,13.54c.13,3.57,1.33,5.21,3.86,5.28,3.11.09,5.82-1.53,8.23-4.16,8-8.76,13.24-20.68,17.71-33.26a38.68,38.68,0,0,0,2-18.13ZM338.61,82.13a22.35,22.35,0,0,1-3,6.34,3.41,3.41,0,0,0-.29.83c-.94,3.91,1.36,9.31,4.21,9.76,8.12,1.28,11.79-3.44,19.3-12.27a.62.62,0,0,0,.15-.22,4.65,4.65,0,0,0,0-3.08c-1.7-2.75-3.32-6-5.5-7.66-6.33-4.69-12.09-.35-14.82,6.3-.12,1-2.83,5.41-3,6.34h0C335.73,86.45,338.48,84.14,338.61,82.13Zm16.23-13.66c-.16-.1.17.06,0,0-1.31-.51-1.23-.69,0,0a12.88,12.88,0,0,1,1.52.06C357.68,69.26,356.14,69.24,354.84,68.47Z"/><path d="M456.27,104.9c-1.45.39-2.92.73-4.36,1.19-3.17,1-6.33,2.08-9.49,3.09-11,3.49-21.84,8.12-33.22,5.14a16.25,16.25,0,0,1-5.71-2.29c-4.62-3.43-5.88-8.68-4.28-16.6a33,33,0,0,1,8.51-16.1,126.61,126.61,0,0,1,13.22-13,51.73,51.73,0,0,1,12.25-7.78c2.68-1.15,5.79-.7,8.61-.05,1.38.32,2.9,2.41,3.72,4.33,1,2.43-.29,5.14-1.39,6.54-7.71,10-16.05,18.38-26.46,20.2-2.67.46-5.43-.35-8.16-.32a2.92,2.92,0,0,0-2.31,1.5,18,18,0,0,0-1.56,9.58c.39,4.22,2.31,6.82,5.4,7.39a36.89,36.89,0,0,0,14.31-.55c5.4-1.11,10.82-2.17,16.26-2.89,4.16-.54,8.35-.57,12.54-.75a7.67,7.67,0,0,1,2.05.49ZM409.78,85l.31,1.25a53.4,53.4,0,0,0,7.79-.66c5.58-1.24,10.47-5.41,15.41-9.24,2.82-2.2,5.33-5.41,7.82-8.46.76-.92,1.61-3.43,1.32-4.18-.51-1.34-1.88-2-2.94-2.73a1.6,1.6,0,0,0-1.38-.16,30.13,30.13,0,0,0-5.94,2.08c-5.87,3.23-11,8.51-16.11,13.89C413.82,79.14,411.87,82.2,409.78,85Z"/><path d="M172.68,113.58c-.26.2-.5.53-.78.6a23,23,0,0,1-17.19-1.32c-4.68-2.37-5.06-3.67-4.94-11.5-2.82,2.83-5.47,5.55-8.2,8.21-3.4,3.32-7.09,5.05-11.36,4.09-4.62-1-7.24-5.53-6.66-11.85a25.76,25.76,0,0,1,.85-5c1.76-5.93,3.52-11.88,5.54-17.65A23.25,23.25,0,0,1,133.43,73c.63-.88,1.83-.88,3.29-1.48-1.42,3.5-2.73,6-3.56,8.84-2,6.68-3.85,13.42-5.47,20.27-.68,2.84-.62,6,1.67,8s4.38.76,6.29-1a127.57,127.57,0,0,0,17.66-20.45c4.81-7,9.83-13.76,13.49-22,1.89-4.21,4.25-4.89,7.3-4.37a2.37,2.37,0,0,1,1.64,1.52,4.78,4.78,0,0,1-.46,2.9c-3,5.45-6.38,10.59-9.11,16.28-2.74,5.53-4.85,11.55-7.1,17.48a33,33,0,0,0-1.54,6.33c-.44,2.68.63,4.49,2.46,5,3,.88,6.11,1.49,9.17,2.14,1.18.26,2.39.35,3.59.53A3.33,3.33,0,0,0,172.68,113.58Z"/><path d="M202.92,66.91c.51-2.46,1.67-3.31,3.24-2.64,2.14.88,3.06,3.52,4,5.94,1.32,3.41,2.52,6.9,3.68,10.1,4.81-3.18,9.5-6.8,14.45-9.42s10.26-3.27,15.48-4.28l.24,1.18c-1.54.88-3.1,1.76-4.6,2.77-4.65,3.18-9.34,6.3-13.9,9.75a55.35,55.35,0,0,0-6.28,6.16c-2.13,2.26-2.66,6.66-1.92,10.31A143.71,143.71,0,0,1,219.57,112c.4,4.52-2.57,7.46-5.61,6.08a2.46,2.46,0,0,0-.55-.25c-2-.26-4.3.34-5.16-3.23-.61-2.58-1-5.28-1.41-7.92a30.57,30.57,0,0,1,2.57-17.4,5.27,5.27,0,0,0,.05-4.54,26.21,26.21,0,0,1-1-4.28c-.71-3.24-1.49-6.46-2.11-9.69C205.9,68,205.09,66.29,202.92,66.91Z"/><path d="M298.4,70.18a30.79,30.79,0,0,0-4.13,3.61,8.17,8.17,0,0,0-1.56,3.91c-.58,4.85-.93,9.75-1.36,14.63-.46,5.21.6,8.83,4.83,8.1a52.73,52.73,0,0,0,17.91-6,2.88,2.88,0,0,1,2.33-.42c-1.7,2.07-3.54,4-5.09,6.25-5.23,7.75-11.86,8.8-18.83,8.26-3.19-.25-6.36-.65-9.08-3.56a1.67,1.67,0,0,0-1.91,0c-1.93,1.16-3.8,2.54-5.7,3.81-8.77,5.87-16-4-16.09-15.87-.05-6.88,2.81-11.53,5.78-16.11,3.67-5.67,7.52-11.07,13.27-12,4.49-.76,8.71-.15,11.87,5.35a2,2,0,0,0,2,.64c1.85-.41,3.68-1.08,5.52-1.65C298.24,69.41,298.32,69.8,298.4,70.18Zm-17.28-2.4c-2.92.19-4.8,1.63-7,4.43-2,2.53-4,5.12-5.85,7.87-5.33,8-4.75,15-2,24.91.77,2.75,2.29,3.84,4.21,2.62,3.36-2.12,6.69-4.36,9.92-6.85.68-.52,1.17-2.31,1.23-3.56.38-8.64,2.33-16.3,6.42-22.82a5.66,5.66,0,0,0,.1-2.74,4.71,4.71,0,0,0-2.55-3.17A13.58,13.58,0,0,0,281.12,67.78Z"/><path d="M81.86,66.45c-3.51-.33-4.26,3.83-5.82,6.75-.5.93-.67,3.46-1.79,4.67h0c-1.88,5.52-3.72,10.84-5.51,16.19-1.7,5.12-1.12,9.34,1.59,12.13,3.68,3.79,8.25,3.78,11.09.49,5.09-5.9,8.38-13.53,10.86-22,1.79-6.09,2.73-12.33-.13-18.3a44.35,44.35,0,0,0-3.89-5.82c2.86-1.43,5.79-.67,8.58,1.26,5.36,3.7,5.73,10.39,5.11,17.71-.65,7.75-2.86,14.34-6.76,19.83-2.49,3.51-4.68,7.5-7.36,10.69-4.76,5.67-10.33,6.29-16.1,3.71-3.33-1.49-6.53-3.51-8.39-8.06a12.63,12.63,0,0,1-1.14-5.44,40,40,0,0,1,5.21-16.93c1.67-2.76,2.82-6.15,4.29-9.17,1.32-2.7,2.68-5.38,4.19-7.86C77.67,63.45,80.42,63.46,81.86,66.45Z"/></g></g></svg>