<?xml version="1.0" encoding="utf-8"?>
<!-- Generator: Adobe Illustrator 24.0.2, SVG Export Plug-In . SVG Version: 6.00 Build 0)  -->
<svg version="1.1" id="Layer_1" xmlns="http://www.w3.org/2000/svg" xmlns:xlink="http://www.w3.org/1999/xlink" x="0px" y="0px"
	 viewBox="0 0 494.4 157.8" style="enable-background:new 0 0 494.4 157.8;" xml:space="preserve">
<title>Asset 1</title>
<path d="M38.3,83.5l-4.8,2c0.7-2,1.5-4,2.4-6c1.1-2,3.4-3,5.6-2.4c2.2,0.3,3.8,2.2,3.8,4.4c0.1,1.6-0.1,3.1-0.7,4.6
	c-4.4,10.4-18,17.2-29,14.6c-8.7-2-13.1-8.1-14.8-16.3S0.3,67.9,3.2,60.1c8.4-22.5,22-41.2,41.9-54.9C48.3,3.1,52,1.7,55.5,0L56,0.8
	c-2.4,2-4.8,4.2-7.3,6.1C28.6,21.6,13.9,40.3,6.1,64c-2.2,6.1-2.8,12.6-1.8,19c2,12,12,17.6,23.2,12.9c3.8-1.5,7.2-4,9.6-7.4
	c0.8-1.4,1.4-2.8,2-4.3L38.3,83.5z"/>
<path d="M230.5,52.8l8.2,13.4c5.3-5.5,12.3-9.2,19.8-10.5c6.2-1,12.5-1.2,18.8-1.6c1.7,0,3.3,0.4,4.7,1.2c-2.7,0.2-5.3,0.3-8,0.6
	c-13.1,1.5-23.6,8-32.8,17c-0.7,0.7-0.8,2-0.8,3.1c-0.1,4.1,0.1,8.1-0.3,12.2c-0.2,2.6-2.3,4.7-4.9,4.8c-4.9,0.3-7.4-2.3-6.5-7.3
	c0.7-5.1,2.7-10,5.7-14.2c1.2-1.4,1.5-3.3,0.7-5c-1.9-4.3-3.6-8.7-5.4-13.1L230.5,52.8z M238,78l-1.4-0.3c-1.2,2.9-2.4,5.7-3.4,8.6
	c-0.5,1.4,0,2.5,1.7,2.9c1.9,0.4,2.5-0.8,2.6-2.2C237.8,84.1,237.9,81.1,238,78z"/>
<path d="M162.6,88.8c-1.9-3.2-3.7-6.4-5.9-9.4c-1.9-2.8-4.1-5.5-6.5-7.8c-5.8-5.2-12.5-5.9-19.5-2.9c-5.6,2.3-10.3,6.3-13.4,11.6
	c-1.4,2.3-1.7,5.3-2.6,8c-0.5,1.5-0.1,3.9-2.4,3.8s-1.7-2.5-2-4c-0.1-1.2,0-2.5,0.4-3.7c1.4-5.4,2.9-10.8,4.4-16.3
	c0.1-0.5,0.4-0.8,0.8-1.1c0.2,1.9,0.3,3.8,0.5,6.3c1-1.1,1.6-1.8,2.1-2.4c4.3-5,9.4-8.7,16-10c5.4-1.2,11,0,15.4,3.2
	C158.3,70.2,161.3,79.1,162.6,88.8z"/>
<path d="M327.6,101l5.5,0.5l0.1,0.2c-1,0.2-2,0.5-3,0.7c-5.5,1.1-7.4-0.9-5.3-6.1c1.1-2.7,2.8-5.1,4.9-7c5.6-5.1,11.5-9.8,17.3-14.6
	c1.5-1.1,3.2-2.1,4.8-3c-0.9-0.3-1.5-0.6-2.1-0.8c-3.5-1.5-7.1-2.9-10.4-4.7c-2.8-1.5-3.6-5.2-2.6-8.7c1.4-4.9,8.9-11.8,14.9-10.3
	c2.1,0.5,2.3,0.3,3.4,2.8c-6.8-2.2-11,1.4-14.5,6.3c-2.6,3.8-2,6.8,2.2,8.6c4.6,1.9,9.5,3.2,14.3,4.9c1,0.3,2.4,1.2,2.5,1.8
	c0,1.2-0.6,2.3-1.6,3c-10.6,5.6-19.2,13.7-27.6,22.1c-0.6,0.7-1.2,1.4-1.7,2.1C328.3,99.5,327.9,100.2,327.6,101z"/>
<path d="M301.7,53.6c1.2,0.7,2.3,1.6,3.4,2.6c0,0,0,0,0.1,0.1c6.3,7.9,8,16.6,4,26.1c-2.4,5.8-6.4,10.8-11.5,14.5
	c-3.6,2.6-8.4,2.6-12.1,0.2c-1.9-1.4-3.1-3.6-3.1-5.9c-0.5-8.3,3.5-14.9,8.1-21.2c1.9-2.5,4-4.9,6.2-7.1c1.1-1.1,2.9-1.5,4.4-2
	c1-0.2,1.6,1.4,0.2,2c0,0-2.2,1.1-3,1.9c-3.8,5.2-7.8,10.2-10.9,15.8c-1.6,3-1.8,7-1.8,10.6c0,3.8,5.6,5.8,8.9,3.1
	c7.6-6.2,12.4-14,11.7-24.1c-0.2-3.4-1.9-6.8-3.1-10.2c-0.7-1.9-1.6-3.7-2.4-5.5L301.7,53.6z"/>
<path d="M214.4,88.3c-9.2,4.6-18.7,8.2-29.1,6c-7.3-1.4-11.3-7.3-9.9-14.6c2-10.4,8.3-17.6,18-21.7c1.7-0.6,3.5-0.9,5.4-0.7
	c4,0.2,5.9,4,3.7,7.4c-2.1,3.4-5.7,4.8-9.6,5c-2.1,0.1-4.3-0.5-6.4-0.6c-0.8,0-2.1,0.2-2.4,0.8c-1.4,2.7-3.1,5.4-3.8,8.3
	c-1.5,5.9,1.3,10.6,7.4,11.8c4.6,0.7,9.2,0.9,13.9,0.4c3.7-0.2,7.4-1.3,11-2C213.2,88.4,213.8,88.4,214.4,88.3z M187,66.4
	c-0.5,0.5-0.2,1.3,0.5,1.3c4.5,0.1,8.3-0.1,11.5-2.8c0.6-0.5,0.9-1.6,1.2-2.5c0.1-0.4-0.1-0.8-0.4-0.9c-0.8-0.4-1.7-0.8-2.5-0.7
	C193.2,61.1,190.1,63.4,187,66.4z"/>
<path d="M415.1,79.2c-1.3-1.1-3.4-2-3.3-2.9c0-2.2,2.3-1.3,3.6-1.4c1.8,0,3.4-0.9,4.3-2.4c3.1-6,6.7-11.7,11.8-16.7
	c1-1.3,2.3-2.2,4.2-0.6c-2.5,2.8-11.5,14.8-13.9,18.5l17.6-4l0.2,0.7c-1.8,1.1-3.7,2-5.7,2.9c-4.2,1.5-8.5,2.7-12.8,4.2
	c-1.2,0.4-2.3,1.1-3,2.2c-2.2,4.7-7.4,15.5-2.9,15.5c7.2,0,11-0.1,16.2,0.4c-1.8,0.6-3.7,1.1-5.6,1.5c-3.8,0.5-7.6,0.9-11.4,1
	c-4.2,0.2-6.5-2.5-5.2-6.6C409.4,88.1,414.2,80,415.1,79.2z"/>
<path d="M494.4,59.3c-1.1,2.7-2.3,5.3-3.8,7.8c-20.2,33.6-46.1,75.4-28.7,40.9c8.4-16.7,16.2-34.7,31.7-49.2L494.4,59.3z"/>
<path d="M377.1,95.7c7.2-0.8,11.4-6.8,16.6-10.2c-2.9,5.5-11,12.6-16,13.7c-4.2,1-5.9-0.8-5.2-5.1c1.2-7.4,5.3-13.6,8.1-20.4
	c1.3-3.2,2.8-6.4,4.4-9.5c0.5-0.9,1.7-1.3,2.6-2c0.2,1.1,0.9,2.4,0.5,3.3c-2.5,6.2-5.2,12.3-7.7,18.4c-1.5,3.7-2.8,7.4-4.1,11.2
	L377.1,95.7z"/>
<path d="M469.6,86c-3.8,1.1-6.7-0.8-8.5-3.6c-4.1-6.1-7.1-12.7-6.2-20.3c0.3-0.9,0.7-1.8,1.3-2.6c0.6,0.8,1.1,1.7,1.5,2.7
	c0.9,3.3,1.4,6.8,2.4,10.1c0.7,2.3,1.9,4.4,2.7,6.7C464.4,83.4,465.6,84.7,469.6,86z"/>
<path d="M394.5,47c0.4,1.1,1.1,2.2,0.8,2.7c-0.6,1.2-1.5,2.1-2.6,2.9c-0.6,0.4-1.7-0.2-2.6-0.3c0.1-0.8,0-1.9,0.4-2.4
	C391.8,48.8,393.1,47.8,394.5,47z"/>
<path d="M97.7,88.3c-9.2,4.6-18.7,8.2-29.1,6c-7.3-1.4-11.3-7.3-9.9-14.6c2-10.4,8.3-17.6,18-21.7c1.7-0.6,3.5-0.9,5.4-0.7
	c4,0.2,5.9,4,3.7,7.4c-2.1,3.4-5.7,4.8-9.6,5c-2.1,0.1-4.3-0.5-6.4-0.6c-0.8,0-2.1,0.2-2.4,0.8c-1.4,2.7-3.1,5.4-3.8,8.3
	c-1.5,5.9,1.3,10.6,7.4,11.8c4.6,0.7,9.2,0.9,13.9,0.4c3.7-0.2,7.4-1.3,11-2C96.4,88.4,97.1,88.4,97.7,88.3z M70.3,66.4
	c-0.5,0.5-0.2,1.3,0.5,1.3c4.5,0.1,8.3-0.1,11.5-2.8c0.6-0.5,0.9-1.6,1.2-2.5c0.1-0.4-0.1-0.8-0.4-0.9c-0.8-0.4-1.7-0.8-2.5-0.7
	C76.5,61.1,73.4,63.4,70.3,66.4z"/>
<path d="M297.5,59.2"/>
</svg>
