<svg xmlns="http://www.w3.org/2000/svg" viewBox="0 0 475.7 305.94"><title>Asset 2</title><g id="Layer_2" data-name="Layer 2"><g id="Layer_1-2" data-name="Layer 1"><path d="M24.48,2.09c-6.17.82-10.47,2.66-14,6C5.41,12.69,5,15.34,10,19.8c4.44,3.92,9.65,7,14.62,10.32,2.83,1.88,6,3.31,8.75,5.22,7.29,5,9.6,12.75,6.37,20.93A26.6,26.6,0,0,1,25.3,71.5c-6.21,2.63-12.87,4.27-19.41,6.09C4.35,78,2.51,77.42.8,77.3.68,76.87.56,76.44.43,76a57,57,0,0,1,6.94-3.76A66.83,66.83,0,0,0,27.1,61,28,28,0,0,0,32,55.85c4.19-6,3.31-10.63-2.84-14.59-3.85-2.49-8.11-4.37-11.94-6.88-4-2.62-8.1-5.28-11.45-8.62C-2.9,17.09-1.73,9.35,8.81,3,12.49.82,16.37-.7,20.79.33A25.3,25.3,0,0,1,24.48,2.09Z"/><path d="M138.48,79.2a48.7,48.7,0,0,1-2.29-5.52c-.64-2.27-.63-4.74-1.4-7-1.21-3.47-3.64-4.52-6.5-2.25a91.23,91.23,0,0,0-10.53,10.46c-1.57,1.72-2.53,4-3.74,5.93-4.26-1.66-5.76-3.56-5.13-6.84,1.09-5.64,2.36-11.24,3.62-16.84.11-.5.68-.9,1.38-1.77.82,2.34,1.51,4.31,2.36,6.72a31.33,31.33,0,0,1,3.46-2.77c2.39-1.42,4.76-3.06,7.38-3.89,6-1.92,9-.4,13.57,6.38,1.19-1.36,2.27-2.67,3.42-3.9,5.66-6.07,12.51-6.29,18.41-.57,6.59,6.37,7.27,14.47,7.47,23.34-3.29-.41-3.49-2.67-4.42-4.22-2.44-4.08-4.59-8.37-7.37-12.23s-5.59-4.22-8.9-.63c-2.78,3-4.85,6.72-7.05,10.22a41,41,0,0,0-2.34,5.23Z"/><path d="M196.27,77.41c-5.13,11.14-4.33,23.93-9.58,35.87-2.69-6.47-2.4-12.27-1.79-18a195.78,195.78,0,0,1,3.64-23.41c1-4.33,3.44-8.46,5.83-12.31a17.08,17.08,0,0,1,6.08-5.51c4.37-2.44,8.88-2.25,12.91,1.1s3.36,7.94,2.23,12.11C213.22,76,206.35,79.43,196.27,77.41Zm2.61-6c6,.3,9.33-2.74,9.48-8.74C203.14,62.48,200.54,64.88,198.88,71.42Z"/><path d="M157.47,253.77c4.71-3.55,8.69-7.27,13.31-9.86C177.83,240,184,242.16,188.1,249c4.85,8.22,4.5,17.07,3.31,26a2.22,2.22,0,0,1-.54,1,12.45,12.45,0,0,1-1.42,1.2c-.53-2.39-.92-4.44-1.45-6.46-1.47-5.53-2.55-11.22-4.64-16.52-2.19-5.58-5.89-6.37-11-3.16a37.88,37.88,0,0,0-11.87,12.45c-1.13,1.81-2.31,3.59-3.53,5.49-3.29-1.23-4.29-3.48-4.66-6.1-.19-1.37,0-2.8-.24-4.15-.63-3.44-2.65-4.44-5.56-2.35-2.57,1.84-4.68,4.31-6.95,6.54-1.37,1.35-2.67,2.78-4,4.14-4.84-4.1-4.89-6.32-.63-21.05v13.22c2.35-2.46,3.88-4.13,5.49-5.73C147.2,246.87,151.66,247,157.47,253.77Z"/><path d="M253.79,253.19l-3.74,5.27c-.43-1.13-.62-1.4-.55-1.49,4.16-6,3.67-13.11,4.54-19.87a31.15,31.15,0,0,1,5.61-14.24,16.13,16.13,0,0,1,1.85-2.34c2.28-2.19,5.56-3,7.05-1.68,2,1.82,1.24,4.08.39,6.07-1.86,4.39-3.73,8.78-6,13a21.73,21.73,0,0,0,5.3,27.33c1.52,1.27,3.08,2.52,4.47,3.92.66.67,1,1.66,2.08,3.63C263.57,270.18,257.24,264,253.79,253.19Z"/><path d="M304,167.94c-7.43-.09-9.95-4.35-12.22-8.37-2.34,2.77-4.35,6-7.12,8.25-4,3.28-8.95,4.18-14.15,3.86A7.29,7.29,0,0,1,264,167.3c-1.39-2.76-.19-5,1.3-7.17a31.92,31.92,0,0,1,3.24-3.49c-1-1.09-1.88-2-3.44-3.73,8.88-1,16.87-2,25.24,1,.38-7.06,2.3-13.52,7-18.67-.83,5.59-2.22,11.29-2.38,17C294.77,158.42,298.6,163.19,304,167.94Zm-20.55-8.48c-11.59-3.67-15.26-2.14-15.11,6C274.38,166.57,279.15,164.62,283.46,159.46Z"/><path d="M32.52,198.26c4.2,10.82,4.75,21.93,3.51,32.92-1.13,10.1-2.77,20.12-4.8,30C29.1,271.43,23.8,279.67,18,287.39a8.87,8.87,0,0,1-5.09,3.1c1.12-2.66,2-5.54,3.42-7.94,12.44-21,16.07-45.49,17.25-70.94a57.58,57.58,0,0,0-.63-7.1C32.77,202.43,32.66,200.34,32.52,198.26Z"/><path d="M359.73,304.48a537.78,537.78,0,0,1,39.86-43.9.9.9,0,0,0-.13-1.36L381.83,247.3a.89.89,0,0,1,.54-1.63c2.58.12,4.72,1,10.16,3.82,3.72,1.92,7.29,4.14,11.29,6.47a.91.91,0,0,0,1-.08l8.72-7a.88.88,0,0,1,1.18.07l.43.43c-2,2-4,4.06-6,6-1.37,1.33-7.89,8.52-10,10.77q-15.58,16.94-31.41,33.65a76.17,76.17,0,0,1-6.77,5.87.89.89,0,0,1-1.26-.12h0A.9.9,0,0,1,359.73,304.48Z"/><path d="M337,74.33a12.59,12.59,0,0,1-3.79.89c-9.1,0-10.23.2-18.88-1.92-5.72-1.4-9.28-4-10.44-7.84a6.75,6.75,0,0,1,.74-5.58c2.82-4.3,13.24-7.47,21.43-7a.8.8,0,0,1,.22,1.55c-4.51,1.57-6.74,2-10.38,3.54-14.75,6.31,0,13.27,17.84,13C349.7,70.79,337.62,74.11,337,74.33Z"/><path d="M32.92,236.19l23.54-2.47c.67-5,1.24-10.24,2.11-15.44s1.92-10.43,5.06-16.36a31.66,31.66,0,0,1,0,4.43c-1.76,9.18-2.77,18.38-1.71,27.73.55,4.88.56,9.84,1.41,14.66a37,37,0,0,0,6.89,15.68,41.27,41.27,0,0,1,2.72,4.87l-.86.86a12.91,12.91,0,0,1-3.44-1.43c-7.76-6.33-11.15-14.78-11.72-24.48-.14-2.33,0-4.66,0-7.37L33.08,238C33,237.39,33,236.79,32.92,236.19Z"/><path d="M414.55,116c13.21-16.67,28.6-31.27,45.1-46.51C450,67.6,441.44,65.25,435,58.18c3.56,1.25,7.14,2.47,10.69,3.75,4.33,1.55,8.7,3,12.93,4.81,2.45,1,4.1.39,5.92-1.2a85.65,85.65,0,0,1,11.15-8.47A744.4,744.4,0,0,1,414.55,116Z"/><path d="M216.58,148.73c.6,3.19,1.1,5.87,1.77,9.42,2.91-1.8,5.2-3.2,7.47-4.63a26.4,26.4,0,0,1,16.52-4.44c6.17.5,11.63,7.41,10.52,13.46-.09.49-.73.89-1.23,1.46-.68-.49-1.53-.81-1.91-1.42-4-6.41-9.95-5.88-16-4.24-3,.83-5.87,2.51-8.82,3.74-2.45,1-4.94,1.77-7.36-.11s-3-4.58-2.36-7.49C215.55,152.75,216,151,216.58,148.73Z"/><path d="M396.7,61.63c2.36,10,12.41,8.74,19.25,12.56-9.71,4.71-19.81.26-24.87-10.61l-10.37.53-.23-.73,10.38-4.79c1.94-6.78,4.66-13.4,10-18.52l1.4.62c-2,4.91-3.91,9.82-6.21,15.58l16.37-3C407.92,58.39,401.73,58.24,396.7,61.63Z"/><path d="M93.06,245.66c0,4.83-.1,9.73.07,14.62,0,1,1,2.06,1.62,3.21,3.36.05,5.19-2.23,7-4.15a39.6,39.6,0,0,0,10.13-17.26c.63-2.33,1.56-3.59,4.57-2.25a20.27,20.27,0,0,1-.44,3.74c-2.71,8.8-6.52,17-13.34,23.53a12.67,12.67,0,0,1-4.91,3.2c-4.88,1.42-9.29-2.31-10.12-8.18S88.79,250.57,93.06,245.66Z"/><path d="M340.7,238.72v10.94l12.1-2.21c-3.1,5.13-8.6,4.5-11.88,7.33,1.63,10.91,10.19,10.73,18.44,11q-3.24,5.52-12.46,4.35c-8-1-9.24-7.74-11.6-13.88-3.95.32-8.22,1.64-12.18-1.79L335.87,251c1.15-4.17,2.28-8.29,3.42-12.4Z"/><path d="M222.35,245.24c-2.14,5.44-4.85,9.89-1.61,14.09,2.67,3.46,6.29,6.2,9.5,9.27-5,1.56-10.43-.83-13.33-5.56C213.61,257.64,214.82,250.49,222.35,245.24Z"/><path d="M297.22,249c-1.89,10.58,1.42,14.11,14.94,16.87-2.38,2.32-4,3.34-6.78,2.89s-5.66-1.09-7.73-2.65C292.36,262.11,292.18,254.89,297.22,249Z"/><path d="M224.85,232.5c-1.9-4.32.93-5.38,3.77-7.32C228.73,228.77,227,230.44,224.85,232.5Z"/><path d="M308.12,230.76,304,234l-.64-.65,3.89-3.47C307.55,230.18,307.84,230.47,308.12,230.76Z"/><path d="M372.51,74c-3.82,3.8-10.12,5-13.57,3-3.26-1.83-5.78-6.83-4.55-10.72a62.29,62.29,0,0,1,5.23-11.17c.93-1.67,2.57-3.15,5.42-1.68-1,3.22-2.16,6.48-3,9.83-1.14,4.71-.46,5.7,4.11,7.67C368.24,71.87,370.23,72.91,372.51,74Z"/><path d="M363.11,40.41c-.87-5.79,3.33-7.34,6.24-10C368.87,34.49,367.93,36.05,363.11,40.41Z"/><path d="M289.12,73.89c-3.82,3.8-10.13,5-13.57,3-3.26-1.83-5.78-6.83-4.55-10.72a62.29,62.29,0,0,1,5.22-11.17c.94-1.67,2.58-3.15,5.43-1.68-1,3.22-2.17,6.48-3,9.83-1.14,4.7-.47,5.7,4.11,7.67C284.85,71.75,286.84,72.79,289.12,73.89Z"/><path d="M279.72,40.29c-.87-5.79,3.32-7.34,6.24-10C285.48,34.37,284.53,35.93,279.72,40.29Z"/><path d="M246.88,101c-1.17-5.15-2.54-10.28-3.45-15.48-.87-5-1.28-10.09-2-16.14l-10,14.77-.84-.54C233.3,77,235.77,70.38,238.8,64c2.93-6.19,2.18-12.82,3.15-19.24,1.27-8.41,2.41-16.84,3.83-25.23a20.37,20.37,0,0,1,2.41-6.05A4.8,4.8,0,0,1,253.83,11c2.55.57,2.56,2.7,2.68,4.73.42,6.64-1.15,13-2.88,19.32C252.9,37.76,252,40.41,251,43c-3.84,10.46-4.31,21.17-3.25,32.17.81,8.4.69,16.89,1,25.34Z"/><path d="M84.2,75.74c-3.82,3.81-10.12,5-13.57,3.06C67.37,77,64.85,72,66.08,68.08a61.65,61.65,0,0,1,5.23-11.17c.93-1.67,2.57-3.16,5.42-1.68-1,3.21-2.16,6.48-3,9.83-1.14,4.7-.47,5.7,4.11,7.66C79.93,73.61,81.92,74.65,84.2,75.74Z"/><path d="M74.8,42.14c-.87-5.79,3.32-7.33,6.24-10C80.56,36.23,79.62,37.79,74.8,42.14Z"/><path d="M210.08,167.64c-7.42,6.37-16.15,5.24-22.81-2.31-1.57,1.06-3.1,2.26-4.79,3.19-2.94,1.64-6.16,2.34-9,.21s-3.8-5.3-2.9-9c1.35-5.54,3.5-10.48,8.49-13.82a25.06,25.06,0,0,0,3.27-3.35l8.65,4.07,4-4.4.83.42c-1.06,2.86-2.08,5.74-3.2,8.57-4.05,10.27-1,12.71,8.45,14.87C203.76,166.73,206.53,167.05,210.08,167.64Zm-28.82-21.7c-5.06,4.26-7.71,9.38-7.87,15.57-.1,3.66,2.28,5,5.56,3.5C186.31,161.69,187.8,152,181.26,145.94Z"/></g></g></svg>