<svg xmlns="http://www.w3.org/2000/svg" viewBox="0 0 671.42 222.35"><title>Asset 1</title><g id="Layer_2" data-name="Layer 2"><g id="Layer_1-2" data-name="Layer 1"><path d="M299.34,124.93a3.48,3.48,0,0,0-3.49,4.17c1,3.78.51,8.76,4.32,10.6,18.58,21.5,55.74,2.12,69.11-9.77,1.44-1,2.49-.5,2.61-.32.22.36.06,1.63-1,3.2C359,144.13,350.66,149.08,341.76,153c-16.82,6.89-30.95,6-44.73-2.73s-16.64-24.52-7-39.87,22.47-26.66,41-28.59c13.91-1.45,18.46,5.76,12.31,18.54C335.91,115.84,317.8,125.82,299.34,124.93Zm2.32-4.89c19.24-3.12,33.25-13.18,36.67-26A2.75,2.75,0,0,0,336,90.47c-13.15-1.85-29.65,9.29-37.42,25.53A2.79,2.79,0,0,0,301.66,120Z"/><path d="M421.13,206.05c-2-11.8-4.34-23.53-5.9-35.43-1.46-11.1-2.15-22.37-3.33-35.66,0-.43-.48-.57-.66-.21-5.31,10.48-10,19.79-14.68,29l-2.12-1.49c4.18-13.66,8.12-27.48,12.85-40.8,5-14.18,3.74-29.35,5.4-44.05,2.18-19.24,8.64-66.41,10.24-70.46,1.92-4.8,6-7.8,10-6.69,4.5,1.25,4.52,6.17,4.74,10.86.67,14.44-7.15,54.56-8.89,60.63-7,24.48-7.92,49.56-6.06,75.34,1.39,19.22,1.18,38.64,1.68,58Z"/><path d="M606.25,222.35c1.67-29.15,16.12-50.08,26-75.39-12.71,1.83-19.71-6.52-22.53-21.36-1.9-10,2-20.77,9.26-26.47-.49,5.37-1.59,10.29-1.17,15s1.53,10.11,3.86,13.28c3.16,4.29,7.37,1.09,10.25-2,7.93-8.6,15.54-17.72,23.26-26.67a15.06,15.06,0,0,0,1.25-2.16c4.43-7.3,9.53-10.34,12.88-7.69,3.12,2.48,2.85,9.7-1.27,18.56-7.37,15.87-14.55,32-22.63,47.18-11.24,21.2-23.21,41.72-34.94,62.47A40.49,40.49,0,0,1,606.25,222.35Z"/><path d="M36.79,102.77l29.48-6.3c-8.94,9.85-20.36,9.74-30.72,15-6.06,29-11.54,58.6-32.29,78.36-3.35-7.49.1-11.18,1.73-15.09,6.79-16.37,13-33,16.39-51.27.48-2.61.73-5.29,1.27-9.28L.18,115.71,0,114.35l24-8.87c1.46-10.61,2.48-21.35,4.5-31.76a305.86,305.86,0,0,1,8.26-33.51,55,55,0,0,1,8.89-16.46c14-18.19,29.17-12.09,34.79,16.07-2.71-4.17-4.14-6.53-5.7-8.75-5.74-8.18-12.93-9.4-19-1.6A68.51,68.51,0,0,0,45.3,49.26C39.87,65.51,38.26,83.08,36.79,102.77Z"/><path d="M251.59,150.83c-9.3-2-11.58-11.28-15.62-19.33-1.73,4.63-3.15,8.64-4.69,12.56-4.67,11.81-11.46,20.3-21.53,23.39-8.18,2.5-15.19-.66-19.3-8.46-4.32-8.17-4.78-19.74.26-28a98.71,98.71,0,0,1,15.48-19.65c8.87-8.58,18.43-18.1,27.78,3.37,4.11-30.12,9.72-55.78,18.18-80.17l2.26.78c-1.93,12.26-4,24.49-5.74,36.8-1.37,9.77-2.78,19.59-3.38,29.48-.87,14.59-.2,29,5.49,42.28C251.38,145.24,251.2,147.22,251.59,150.83Zm-33.71-42.12C208.46,115.6,202.06,125.47,197,137c-2,4.63-2.08,9.69.8,13.93s6.35,4.69,10.34,3c7.34-3.15,12.26-9.83,15.54-18.62C227.6,124.82,226.09,118.05,217.88,108.71Z"/><path d="M583,99.81c-3,2.6-5.8,5.62-9,7.72-4.91,3.24-10.05,5.88-15.1,8.74-9.42,5.35-11,19.34-3,27.77,2.64,2.77,6,4.44,9,6.45,2.68,1.75,5.45,3.27,9.17,5.47-1.83,2.71-2.81,5.47-3.88,5.53-6.13.34-13,2.37-18.26-.52-11.39-6.24-13.42-20.23-12-36.52l-22.87,6.46c2-4.72,2.5-7.73,3.83-8.66,5.44-3.82,11-7.58,16.79-10.24,4.66-2.14,7.31-5.8,9.28-11.55,2.84-8.25,6.21-16.19,9.57-24.11,1.09-2.58,2.84-4.67,5.09-8.25,4.79,13.37-4.13,22.18-3.3,34,3.63-1,7.51-2.11,11.41-3.11s7.95-1.89,11.92-2.83Z"/><path d="M493.34,153.69c-6.54,8.71-17.35,11.41-23.25,7-5.59-4.18-9.91-15.63-7.8-24.52s5.53-17.34,8.95-25.56c1.6-3.83,4.41-7.22,9.3-3.86-1.69,7.37-3.71,14.84-5.09,22.51-1.95,10.76-.8,13,7,17.54C486,148.8,489.44,151.19,493.34,153.69Z"/><path d="M477.23,76.8c-1.48-13.25,5.7-16.79,10.7-22.92C487.11,63.26,485.49,66.84,477.23,76.8Z"/><path d="M145.89,153.71c-6.54,8.71-17.35,11.41-23.25,7-5.59-4.19-9.91-15.63-7.8-24.53s5.53-17.34,9-25.56c1.6-3.83,4.41-7.22,9.3-3.85-1.69,7.36-3.71,14.83-5.09,22.5-2,10.76-.8,13,7,17.54C138.58,148.82,142,151.21,145.89,153.71Z"/><path d="M130.29,78.34C128.8,65.1,136,61.55,141,55.43,140.17,64.8,138.54,68.38,130.29,78.34Z"/></g></g></svg>