<svg xmlns="http://www.w3.org/2000/svg" viewBox="0 0 1024.87 270"><title>Asset 3</title><g id="Layer_2" data-name="Layer 2"><g id="Layer_1-2" data-name="Layer 1"><path d="M402.41,269.48c-1.31-7.71-3.59-15.38-3.74-23.13-.61-30-1.18-60,3.11-89.72,1.29-9,2.16-18.13,3.42-27.14a35.23,35.23,0,0,1,2.39-9.63c4.5-9.7,9.27-19.17,14.05-28.62,4.54-9,11-14.18,18.64-16.09,11.34-2.81,19.6,6.62,20.19,22.59,1.1,29.9-15.86,57.29-37.45,60.56-1.19.18-2.33,1-5.16,2.18L406,270Zm42.24-169.25c-11.74,5.36-20.63,23.7-20,41.34C438.92,133.08,446.48,117.47,444.65,100.23Z"/><path d="M322,102.51C329.65,98,335.6,93.37,342,91c12.72-4.72,21.92,4.68,23.67,22.87,1.79,18.42.58,36.47-2.84,56.73-6.13-7.91-6.18-16.5-7.25-24.45-.91-6.82-1.34-13.79-2.56-20.5-1.59-8.69-4-10.29-10-7.55a16.94,16.94,0,0,0-4.49,3.11c-9.49,9-18.58,12.6-28.25-.4-2-2.7-7.37-3-10.38-1.4-6.18,3.25-11.87,8.37-17.65,13-2.89,2.32-5.31,5.84-8.3,7.79-8.89,5.83-17.77-2.7-16.33-16.12a101.07,101.07,0,0,1,6.67-25.91v27.31c3.5-3.49,5.72-5.64,7.89-7.89,4.68-4.86,9-10.42,14-14.54C298.06,93.3,310.2,88.32,322,102.51Z"/><path d="M929.94,90.93c.84,15.43,1.52,27.72,2.19,40l2.1,1.35c2.15-4.41,4.39-8.75,6.44-13.24,12.75-27.84,49.72-29.64,65.36-10.33,11.55,14.27,18.51,32.59,18.84,56.42-5.17-.83-6.7-6.08-9.24-9.93-6-9.1-11.72-19-18.84-26.22-13.66-13.79-35.86-12-46.55,7-5,8.84-8.89,18.74-13.36,28.1-2,4.22-4.2,8.29-6.27,12.34-6.9-2.79-9-9.32-8.55-16.17C923.56,138.09,924.17,115.64,929.94,90.93Z"/><path d="M545.52,130.71c-2.16,6.43-3.82,11.69-5.67,16.83-3.71,10.32-9.72,17.34-17.36,21.45-7,3.76-14.06,4.18-20-3.43a35.6,35.6,0,0,1-7.07-29.6c4-21.09,13.76-36.18,26.74-49.87l22.27,20.13c4-10.14,8.2-20.8,12.41-31.45l1.78,1.17c-1.51,6.43-3.15,12.82-4.49,19.32-4.8,23.28,1.81,42.89,17.88,52.33,4.18,2.45,8.76,3.66,13.19,5.23s8.68,2.76,14.12,4.48C583.6,172.67,560,160.72,545.52,130.71ZM518,95.76c-9.41,11.61-14.27,25.29-16.42,40.8-1,7.2.48,15.06,5.58,17.49,3.67,1.75,9.16.65,12.65-2.08,14.57-11.39,15.69-35.89,2.84-50.87C521.34,99.63,520.07,98.19,518,95.76Z"/><path d="M193.36,85.69c8.1.11,15.09,4.93,21.89,10.65,5.29,4.44,7,11.44,6.74,19.3-.51,18.35-5.58,33.84-16.62,44.58-7.8,7.59-16.58,12.28-25.9,6-9.74-6.55-14.82-18.43-16-33.14-1.21-15.25,1.93-28.66,10.19-39.32,3.65-4.7,7.46-9.17,12.53-12.28-2.61,4.54-5.36,8.94-7.81,13.64-7,13.47-10.57,27.72-4.12,43.62,4.79,11.79,11.82,15.36,19.77,7.78,5.21-5,9.85-12.48,12.79-20.26,4.08-10.76,2.35-16.39-4.29-24.19l-10.95-12.9Z"/><path d="M621.19,179.72c9.47-18.47,28.9-21.74,34.13-46.3-5-5.43-10.23-10.22-14.73-16-7.78-10-9.49-21.62-5.55-32.78S651.22,64,659.84,65.79c1,.21,1.89,2,2.85,3.13-4.6,3.89-9.38,7-13.4,11.52-9.22,10.23-8.95,17.83.53,27.23,3,3,6.46,5.34,9.49,8.38,8.69,8.72,10.44,16.18,6.09,29.83-2,6.18-4.64,12.72-8.3,16.91C646.94,174.42,634.56,178.81,621.19,179.72Z"/><path d="M786.71,171.88c.62-25.94-3.58-52.32,2.75-78.58C798.65,107.18,797.67,149.92,786.71,171.88Z"/><path d="M796.93,37.36c3.9,11.15.39,18.53-3.54,26.51C785.81,48.28,786.32,44,796.93,37.36Z"/><path d="M697.15,176.93c9.47-18.47,28.9-21.74,34.13-46.3-5-5.43-10.23-10.22-14.74-16-7.78-10-9.49-21.62-5.54-32.78S727.18,61.21,735.79,63c1,.21,1.9,2,2.85,3.14-4.59,3.88-9.37,7-13.39,11.51-9.22,10.23-9,17.83.53,27.23,3,3,6.45,5.34,9.48,8.38,8.7,8.72,10.44,16.18,6.09,29.83-2,6.18-4.63,12.72-8.29,16.91C722.9,171.63,710.52,176,697.15,176.93Z"/><path d="M861.55,80.77c8.1.1,15.09,4.93,21.89,10.64,5.28,4.45,6.95,11.45,6.74,19.3-.51,18.36-5.59,33.84-16.62,44.59-7.8,7.59-16.58,12.27-25.9,6-9.75-6.55-14.82-18.43-16-33.15-1.21-15.24,1.93-28.65,10.19-39.31,3.65-4.71,7.46-9.17,12.53-12.28-2.61,4.53-5.36,8.94-7.81,13.63-7,13.48-10.57,27.72-4.12,43.62,4.79,11.8,11.82,15.37,19.77,7.79,5.21-5,9.84-12.48,12.79-20.27,4.08-10.76,2.35-16.39-4.29-24.19l-11-12.89Z"/><path d="M146.47,168.51a57.57,57.57,0,0,1-8.1,5.16c-16.25,6.88-32.27,14.38-49.11,20.24C66.08,202,41.94,201.39,18,195.84,7.46,193.29.16,184.63,0,175.2c-.34-19.74,6.47-39.3,20-57.38C26.45,101.72,118.57,7.08,141.66,1.37,147.73-.73,155.51.2,162.4.22c1.59,0,4.73,2.37,4.52,2.89a15.26,15.26,0,0,1-4.55,6.6c-10,7.45-20.53,14.41-30.51,21.89a205,205,0,0,0-22.18,18.16A372.68,372.68,0,0,0,77.61,84.58,445.27,445.27,0,0,0,45.34,132.2c-6.81,11.88-12.23,24.67-10.12,38.55,1.26,8.6,6.54,13.31,17,12,12.29-1.41,24.32-4.34,36.41-6.78s24.17-5.16,36.29-7.69c4.5-.86,9.11-1.53,13.79-2a57.94,57.94,0,0,1,6.72,0C145.71,167,146.09,167.74,146.47,168.51Z"/></g></g></svg>