<svg xmlns="http://www.w3.org/2000/svg" viewBox="0 0 466.86 136.01"><title>Asset 1</title><g id="Layer_2" data-name="Layer 2"><g id="Layer_1-2" data-name="Layer 1"><path d="M49.92,98a22.69,22.69,0,0,1-2.76,3c-5.54,4-11,8.36-16.74,11.77-7.9,4.7-16.13,4.35-24.28,1.12C2.54,112.41.05,107.37,0,101.93A81,81,0,0,1,6.81,68.52c4-9.2,7.88-18.49,11.85-27.71a63.73,63.73,0,0,1,9.88-16.2c2-2.3,3.34-5.58,5.22-8.06C38.24,10.63,42.54,4.18,48.28.8,50.35-.42,53,.12,55.35.13c.54,0,1.61,1.38,1.54,1.68a10.64,10.64,0,0,1-1.55,3.84c-3.41,4.33-7,8.38-10.4,12.73a96,96,0,0,0-7.56,10.56A214.93,214.93,0,0,0,26.45,49.19c-4,8.9-7.77,18.15-11,27.69C13.13,83.79,11.28,91.23,12,99.3c.43,5,2.23,7.74,5.78,7,4.19-.82,8.29-2.52,12.41-3.94s8.24-3,12.37-4.47a33.63,33.63,0,0,1,4.7-1.17,11.67,11.67,0,0,1,2.29,0C49.66,97.13,49.79,97.55,49.92,98Z"/><path d="M368.19,67.07a1.16,1.16,0,0,0,1.67.6c5.51-3.26,10.45-8.1,16.44-9.64a6.77,6.77,0,0,1-1,1.82q-7,5.68-14,11.22c-1.27,1-1.8,2.16-1.65,4.46.66,10.09-1.7,19.19-5.21,27.64-3.81,9.17-3.54,10.93-8.08,17.94-1.45,1.58-7.59,9-9.19,10.35a40,40,0,0,1-3.63,2.14c-4,2.29-8,3.83-12.1.42-1.65-1.38-2.57-3.39-2.73-6.29-.4-7.63,1.89-14,4.87-19.7a103.91,103.91,0,0,1,19.32-25.92c2.78-2.76,5.69-5.23,8.54-7.83,1.62-1.47,1.9-2.3.89-4.07a1.18,1.18,0,0,0-1.94-.14c-1.62,2.07-6,6.77-5,5.29-1,1.48,1-1,0,0-3.57,3.5-7.47,5.74-11.86,6.25-4,.45-7.42-.62-10.15-5.09-1.05-1.71-2.66-2.73-2.4-5.67.35-3.92.2-7.86,2-11.35,3-5.74,7.47-8.64,11.59-12.19A16.87,16.87,0,0,1,356.2,43c4.65,0,10.1,6.22,9.4,13.59C365.22,60.78,366.94,63.68,368.19,67.07Zm-4.11,11.36a13,13,0,0,0-1.63,1.29c-6.2,7-12.6,13.8-18.51,21.32-3.17,4-5.43,9.48-8.23,14.12a23.82,23.82,0,0,0-3.39,13.54c.13,3.57,1.33,5.21,3.86,5.28,3.11.09,5.82-1.53,8.23-4.16,8-8.76,13.24-20.68,17.71-33.26A38.91,38.91,0,0,0,364.08,78.43ZM338.61,61.12a22.42,22.42,0,0,1-3,6.34,2.9,2.9,0,0,0-.29.83c-.94,3.91,1.36,9.31,4.21,9.76,8.12,1.28,11.79-3.44,19.3-12.27a.78.78,0,0,0,.15-.22,4.7,4.7,0,0,0,0-3.08c-1.7-2.75-3.32-6-5.5-7.66-6.33-4.69-12.09-.35-14.82,6.3-.12,1-2.83,5.41-3,6.34h0C335.73,65.44,338.48,63.13,338.61,61.12Zm16.23-13.66c-.16-.1.17.06,0,0-1.31-.51-1.23-.69,0,0,.07,0,1.45,0,1.52.06C357.68,48.25,356.14,48.23,354.84,47.46Z"/><path d="M466.86,81c-1.8.45-3.62.85-5.41,1.38-3.94,1.17-7.86,2.43-11.79,3.61-13.6,4.08-27.11,9.48-41.24,6a20.94,20.94,0,0,1-7.09-2.67c-5.73-4-7.3-10.13-5.31-19.37,1.77-8.23,5.94-14,10.56-18.79A153,153,0,0,1,423,36a64.72,64.72,0,0,1,15.2-9.08c3.33-1.35,7.19-.82,10.7-.06,1.71.37,3.59,2.81,4.61,5.05,1.29,2.84-.35,6-1.72,7.63C442.21,51.23,431.86,61,418.94,63.12c-3.32.54-6.75-.41-10.13-.37a3.59,3.59,0,0,0-2.87,1.75A19.86,19.86,0,0,0,404,75.68c.48,4.92,2.87,7.95,6.7,8.62a48.77,48.77,0,0,0,17.77-.64c6.71-1.3,13.44-2.53,20.19-3.37,5.17-.64,10.37-.67,15.57-.88a10.2,10.2,0,0,1,2.54.57ZM409.14,57.73l.39,1.45c3.23-.23,6.49-.09,9.67-.76,6.93-1.45,13-6.32,19.13-10.79,3.5-2.56,6.62-6.31,9.71-9.87.94-1.08,2-4,1.64-4.88-.64-1.56-2.34-2.29-3.65-3.19a2.11,2.11,0,0,0-1.72-.18,39.23,39.23,0,0,0-7.37,2.42c-7.29,3.78-13.69,9.94-20,16.21C414.16,50.94,411.74,54.51,409.14,57.73Z"/><path d="M177.43,106.83c-.28.23-.55.6-.85.69-6.38,1.87-12.74,1.71-18.85-1.51-5.14-2.71-5.55-4.2-5.42-13.16-3.1,3.24-6,6.35-9,9.39-3.72,3.8-7.77,5.78-12.45,4.68-5.07-1.19-7.94-6.32-7.31-13.55a31.19,31.19,0,0,1,.93-5.72c1.94-6.78,3.87-13.59,6.08-20.19a27.06,27.06,0,0,1,3.83-7c.69-1,2-1,3.61-1.69-1.56,4-3,6.89-3.91,10.11-2.16,7.64-4.22,15.35-6,23.18-.74,3.25-.68,6.91,1.83,9.13s4.81.87,6.9-1.19a144,144,0,0,0,19.37-23.39c5.28-8,10.78-15.74,14.8-25.1,2.07-4.82,4.66-5.59,8-5a2.65,2.65,0,0,1,1.8,1.74,5.7,5.7,0,0,1-.5,3.31c-3.32,6.24-7,12.12-10,18.62-3,6.33-5.31,13.22-7.78,20a38.23,38.23,0,0,0-1.69,7.24c-.48,3.06.69,5.13,2.7,5.74,3.32,1,6.7,1.7,10.05,2.45,1.3.29,2.62.4,3.94.6A5.14,5.14,0,0,0,177.43,106.83Z"/><path d="M207.39,51.57c.58-2.8,1.88-3.76,3.65-3,2.41,1,3.45,4,4.52,6.75,1.48,3.87,2.83,7.84,4.14,11.47,5.41-3.61,10.69-7.72,16.27-10.7s11.55-3.71,17.42-4.86l.27,1.34c-1.73,1-3.49,2-5.17,3.14-5.24,3.62-10.52,7.16-15.65,11.08a61.86,61.86,0,0,0-7.07,7c-2.4,2.57-3,7.56-2.16,11.71a163.79,163.79,0,0,1,2.53,17.24c.45,5.13-2.89,8.47-6.32,6.9a2.83,2.83,0,0,0-.62-.28c-2.23-.3-4.84.39-5.8-3.67-.69-2.93-1.12-6-1.59-9a35,35,0,0,1,2.89-19.77,6,6,0,0,0,.06-5.15,30.15,30.15,0,0,1-1.08-4.87c-.8-3.68-1.68-7.33-2.38-11C210.75,52.85,209.84,50.86,207.39,51.57Z"/><path d="M298.4,53.22a31.14,31.14,0,0,0-4.13,3.61,8.18,8.18,0,0,0-1.56,3.91c-.58,4.85-.93,9.75-1.36,14.63-.46,5.21.6,8.83,4.83,8.1a52.68,52.68,0,0,0,17.91-6,2.92,2.92,0,0,1,2.33-.42c-1.7,2.07-3.54,4-5.09,6.25-5.23,7.75-11.86,8.8-18.83,8.26-3.19-.25-6.36-.65-9.08-3.56a1.7,1.7,0,0,0-1.91,0c-1.93,1.16-3.8,2.54-5.7,3.81-8.77,5.87-16-4-16.09-15.87-.05-6.88,2.81-11.53,5.78-16.11,3.67-5.67,7.52-11.07,13.27-12,4.49-.76,8.71-.15,11.87,5.35a2,2,0,0,0,2,.64c1.85-.41,3.68-1.08,5.52-1.65C298.24,52.45,298.32,52.84,298.4,53.22Zm-17.28-2.4c-2.92.19-4.8,1.63-7,4.43-2,2.53-4,5.12-5.85,7.87-5.33,7.95-4.75,15-2,24.91.77,2.75,2.29,3.84,4.21,2.62,3.36-2.12,6.69-4.36,9.92-6.85.68-.52,1.17-2.31,1.23-3.56.38-8.64,2.33-16.3,6.42-22.82a5.73,5.73,0,0,0,.1-2.74,4.77,4.77,0,0,0-2.55-3.17A13.9,13.9,0,0,0,281.12,50.82Z"/><path d="M81.86,66.45c-3.51-.33-4.26,3.83-5.82,6.75-.5.93-.67,3.46-1.79,4.67h0c-1.88,5.52-3.72,10.84-5.51,16.19-1.7,5.12-1.12,9.34,1.59,12.13,3.68,3.79,8.25,3.78,11.09.49,5.09-5.9,8.38-13.53,10.86-22,1.79-6.09,2.73-12.33-.13-18.3a46.09,46.09,0,0,0-3.89-5.82c2.86-1.43,5.79-.67,8.58,1.26,5.36,3.7,5.73,10.39,5.11,17.71-.65,7.75-2.86,14.34-6.76,19.83-2.49,3.51-4.68,7.5-7.36,10.69-4.76,5.67-10.33,6.29-16.1,3.71-3.33-1.49-6.53-3.51-8.39-8.06a12.52,12.52,0,0,1-1.14-5.44,40,40,0,0,1,5.21-16.93c1.67-2.76,2.82-6.15,4.29-9.17,1.32-2.7,2.68-5.38,4.19-7.86C77.67,63.45,80.42,63.46,81.86,66.45Z"/></g></g></svg>