<svg xmlns="http://www.w3.org/2000/svg" viewBox="0 0 362.93 142.24"><title>Asset 1</title><g id="Layer_2" data-name="Layer 2"><g id="Layer_1-2" data-name="Layer 1"><path d="M20.93,77.92l17-10.7.34.5c-4.84,3.51-13.7,9-16.6,11.9-.73.74,0,2.58,0,2.67C23.49,92.17,23.34,102,20,111.54A85.81,85.81,0,0,1,6.31,136.32c-1.84,2.36-4.4,4.16-6.31,5.92,2.21-3.82,4.73-8.08,7.14-12.4,4.17-7.48,8.55-14.85,10.93-23.19A50.43,50.43,0,0,0,19.19,84a17.73,17.73,0,0,0-1-2.71c-.08.08-.47.38-.9.69s-8.94,7.13-13,9a2.85,2.85,0,0,1-2.22.15c2.48-1.77,5-3.55,7.44-5.3,1.84-1.29,3.7-2.53,5.56-3.79,3.83-2.62,3.7-2.62,2.48-7.27-2.79-10.6-5.82-21.18-5.88-32.28-.07-10.59,1-21,6.51-30.35,3.51-6,8.24-10.67,15.41-12C38.56-.7,43.88,1.6,46,5c-2.23-.89-4.73-2.14-7.37-2.91a13.13,13.13,0,0,0-12.9,3.54,34.61,34.61,0,0,0-8.75,14.85c-3.42,11.46-3.29,23-1,34.57C17.48,62.51,19.2,69.94,20.93,77.92Z"/><path d="M210.89,95.62c-7.4,4.49-15,8.18-24,6.53-5.11-.94-7.94-4.32-8.33-9.51s1.17-10.1,3.3-14.71c9.44-20.38,19-40.69,28.64-61,.72-1.59,2-3.09,2.41-3,.89,1,.94,2.74.79,3.86a153.29,153.29,0,0,1-7.23,29.76c-5.64,16.63-14.39,31.63-23.92,46.22-1.09,1.67-.85,2.67.35,3.85,3.49,3.42,7.91,3.51,12.18,2.72,4.53-.85,8.92-2.47,13.37-3.78C209.27,96.33,210.07,95.94,210.89,95.62Zm-30.35-1.69c14.58-23.67,27.1-47.94,31.58-76.11-.63,1.08-1,1.68-1.34,2.32-8,17.06-16.14,34.09-24,51.23A128.23,128.23,0,0,0,181,86.74C180.35,89,180.67,91.52,180.54,93.93Z"/><path d="M267.63,78.31c6.68-1.76,12.73-5,18.56-8.31C283,74.85,276,79.22,268.28,80.6a8.77,8.77,0,0,0-6.47,4.32c-2.73,4.37-5.85,8.53-6.7,13.8-.71,4.42,1.38,7.42,5.83,7.33a54.77,54.77,0,0,0,12.26-1.74c4.69-1.19,9.22-3,13.89-4.4-8.1,4.19-16.19,8.52-25.58,8.83-7.39.25-11.1-4.42-8.84-11.5,1.35-4.2,3.86-8,5.93-12a32.86,32.86,0,0,1,2.33-3.4l-5.8-1.37c.07-.3.13-.61.19-.91.49,0,1,.1,1.46.12,3.93.18,6.88-.92,9.44-4.45a173.83,173.83,0,0,1,13.92-16.3c1.7-1.81,4.32-2.76,6.52-4.11l.29.53-20,22.11Z"/><path d="M113.14,94.24c-2,3.63-4.43,6.84-8.24,8.73s-7,.88-9.06-3.19c3.29,3.21,6.36,2.13,9.26.14,5.31-3.65,7.4-8.79,6.47-15.14-.44-3-4.58-5.41-8.28-4.89A10.76,10.76,0,0,0,94.18,94c.26.93.6,1.83,1,3-4.35-4-4.36-10.2-.27-14.93,3.68-4.25,10.8-7.36,16.85-1.63,4.32-9.73,8.52-19.66,13.12-29.4s7.78-20.15,13.67-29.26l.65.26c-.74,2-1.37,4.09-2.25,6-6.31,14.13-12.7,28.22-19,42.34-1.05,2.35-1.9,4.8-2.78,7.22a12.22,12.22,0,0,0-1,3.83,38.51,38.51,0,0,0,.66,9.93c.63,2.7,2,5,3.32,5.83C118,97.41,114.71,95.47,113.14,94.24Z"/><path d="M280.83,138.56c26.69-27.68,53.53-55.23,81.11-82l1,1Q322.6,98.76,280.83,138.56Z"/><path d="M154.47,97.79a22.48,22.48,0,0,1-13.12,4.56c-4.72.05-7.18-2.49-6.69-7.19A15.29,15.29,0,0,1,136.2,90a53.92,53.92,0,0,1,16.73-19.53,20.65,20.65,0,0,1,6.24-3c3.22-1,5.25,1.29,4.39,4.49-1.91,7.19-11.47,12.54-18.54,10.45a2.26,2.26,0,0,0-2,.48,76.79,76.79,0,0,0-5.43,10.55c-1.32,3.54.62,6.44,4.41,6.78a29.92,29.92,0,0,0,7.83-.84A31.94,31.94,0,0,0,154.47,97.79Zm-10-16.89c6.76,2.43,14.73-3,17-8.53a2.89,2.89,0,0,0-.16-2.52c-.44-.49-1.65-.48-2.49-.37a7.54,7.54,0,0,0-2.54,1C151.6,73,148,76.68,144.43,80.9Z"/><path d="M76.21,90.09a18,18,0,0,1-1.42,2.45c-4.86,6-10.09,11.54-16.86,15.42a12.61,12.61,0,0,1-1.54.82c-4.45,1.84-7,.11-6.73-4.62a16.71,16.71,0,0,1,1-4.85A85.63,85.63,0,0,1,61.76,78.45c1.07-1.44,2.35-2.25,3.75-1.72-1.3,1.42-2.77,2.84-4,4.43-4.36,5.59-7,12.07-9.33,18.67a14.57,14.57,0,0,0-.87,4.11c0,1.15.18,3.18.7,3.32a5.78,5.78,0,0,0,4.23-.37,90.3,90.3,0,0,0,9.91-7.52c3.39-3,6.48-6.35,9.7-9.54Z"/><path d="M232.13,81.63c-2.12,3.53-4.2,7.09-6.36,10.6-1.48,2.39-3.15,4.68-4.58,7.1-.52.89-.42,2.14-.93,3-.4.7-1.31,1.11-2,1.65l-.76-.53a16.12,16.12,0,0,1,1.11-3.29q5.44-9,11.08-18c.41-.65,1.39-.94,2.11-1.39Z"/><path d="M68.45,61.07c-2.19-1.82-3-3.65-1.58-5.14a33.9,33.9,0,0,1,18.18-9.75c-3.43,1.87-6.92,3.66-10.28,5.65A49.45,49.45,0,0,0,70,55.41C68.33,56.69,67.07,58.14,68.45,61.07Z"/><path d="M335.17,70.42c-12.93,1.86-22.34-.11-22.74-4.28,3.51,1.14,7.16,2.72,11,3.43S331.33,70.17,335.17,70.42Z"/><path d="M248.18,47.65C238.47,50,238,50.18,235.37,52.89c-.59-1.75-.24-3.21,1.25-4.09C240.3,46.64,244.26,47.26,248.18,47.65Z"/></g></g></svg>