<svg xmlns="http://www.w3.org/2000/svg" viewBox="0 0 494.44 157.84"><title>Asset 1</title><g id="Layer_2" data-name="Layer 2"><g id="Layer_1-2" data-name="Layer 1"><path d="M38.27,83.51l-4.85,2a56.56,56.56,0,0,1,2.43-6,4.81,4.81,0,0,1,5.58-2.36,4.49,4.49,0,0,1,3.81,4.36,10.61,10.61,0,0,1-.7,4.61c-4.4,10.41-18,17.25-29,14.63C6.86,98.76,2.47,92.68.77,84.41S.32,67.91,3.21,60.09c8.35-22.55,22-41.19,41.94-54.87C48.3,3.06,52,1.72,55.47,0L56,.78c-2.44,2-4.78,4.23-7.33,6.11C28.62,21.63,13.87,40.27,6.05,64A39.25,39.25,0,0,0,4.24,83c2,12,12,17.59,23.2,12.89A21,21,0,0,0,37,88.53a29.37,29.37,0,0,0,2-4.27Z"/><path d="M230.47,52.85l8.25,13.37A35.7,35.7,0,0,1,258.54,55.7c6.19-1,12.54-1.2,18.83-1.6a9.17,9.17,0,0,1,4.72,1.2c-2.66.19-5.33.28-8,.6-13.06,1.54-23.64,8-32.82,17-.66.65-.78,2-.82,3.1-.15,4.06.14,8.14-.31,12.16A5.27,5.27,0,0,1,235.24,93c-4.89.3-7.36-2.32-6.5-7.27a32.41,32.41,0,0,1,5.71-14.23,4.53,4.53,0,0,0,.69-5c-1.86-4.33-3.63-8.7-5.43-13.06ZM238,78l-1.36-.29c-1.16,2.87-2.39,5.71-3.43,8.62-.52,1.44,0,2.52,1.72,2.9,1.91.42,2.48-.8,2.61-2.15C237.82,84.09,237.86,81.06,238,78Z"/><path d="M68.87,69.7a31.2,31.2,0,0,0-.93,5.12c0,2.16,1.14,2.92,3.2,2.3a10.92,10.92,0,0,0,2.68-1.31,29.28,29.28,0,0,0,9.66-10.28,12.45,12.45,0,0,0,1.35-3.47c.68-3.22-.81-4.66-4-3.87a15,15,0,0,0-4.16,1.63,35.54,35.54,0,0,0-15.41,18.4,15.76,15.76,0,0,0-.88,4.88c-.17,4.13,1.71,7.25,5.76,7.9A49.42,49.42,0,0,0,80,91.44c5.14-.65,10.13-2.45,15.19-3.77.92-.24,1.82-.59,2.73-.89l.32.92c-6.3,2.25-12.49,4.92-18.94,6.61a36.48,36.48,0,0,1-13,1c-7.71-.85-11.76-6.82-9.81-14.35,3-11.7,10.39-20.13,21.26-25.35,3-1.46,6.56-2.18,9.26.82s1.37,6.12-.15,9.09A32.07,32.07,0,0,1,74.56,78.31a9.72,9.72,0,0,1-3.71,1.38c-2,.25-4.1-.1-5.15-2.2s-.16-6,1.44-7.15A7.16,7.16,0,0,1,68.87,69.7Z"/><path d="M162.57,88.79c-1.93-3.15-3.71-6.42-5.85-9.44a47.2,47.2,0,0,0-6.54-7.81c-5.77-5.2-12.47-5.92-19.54-2.93a27.73,27.73,0,0,0-13.4,11.56c-1.38,2.34-1.72,5.29-2.57,8-.47,1.48-.08,3.87-2.36,3.79s-1.69-2.52-2-4a9.15,9.15,0,0,1,.41-3.68c1.43-5.44,2.94-10.85,4.43-16.27a1.73,1.73,0,0,1,.83-1.06c.15,1.88.3,3.77.5,6.35,1-1.14,1.55-1.79,2.1-2.44,4.28-5,9.37-8.71,16-10a19.14,19.14,0,0,1,15.44,3.23C158.33,70.16,161.31,79.06,162.57,88.79Z"/><path d="M327.57,101l5.54.5.06.25c-1,.25-2,.53-3,.73-5.5,1.08-7.38-.9-5.29-6.14a19.66,19.66,0,0,1,4.94-7c5.59-5.08,11.49-9.83,17.33-14.63a44.2,44.2,0,0,1,4.82-3c-.85-.34-1.47-.57-2.07-.83-3.49-1.53-7.08-2.87-10.42-4.67-2.76-1.49-3.61-5.17-2.59-8.69,1.41-4.87,8.9-11.77,14.86-10.32,2.12.51,2.33.32,3.36,2.78-6.77-2.24-11,1.41-14.46,6.33-2.65,3.78-1.95,6.83,2.21,8.59,4.62,1.95,9.54,3.19,14.29,4.86,1,.34,2.43,1.17,2.47,1.84a3.74,3.74,0,0,1-1.57,3c-10.57,5.64-19.22,13.65-27.56,22.06a17.57,17.57,0,0,0-1.74,2.11A21.52,21.52,0,0,0,327.57,101Z"/><path d="M301.7,53.57a18.53,18.53,0,0,1,3.39,2.62c6.37,7.91,8,16.65,4.07,26.15a33.26,33.26,0,0,1-11.51,14.48,10.72,10.72,0,0,1-12.12.16,7.32,7.32,0,0,1-3.08-5.92c-.52-8.35,3.46-14.9,8.13-21.17a55.72,55.72,0,0,1,6.24-7.12c1.11-1.06,2.87-1.46,4.39-2,.27-.09.82.59,1.24.92a6.51,6.51,0,0,1-1.06,1.1c-1,.66-2.39,1-3,1.88-3.77,5.15-7.84,10.18-10.86,15.77-1.62,3-1.77,7-1.81,10.62,0,3.83,5.64,5.8,8.93,3.13,7.65-6.19,12.4-14,11.73-24.14-.23-3.45-1.93-6.82-3.09-10.17-.66-1.9-1.61-3.69-2.43-5.53Z"/><path d="M214.43,88.35c-9.22,4.56-18.66,8.17-29.14,6C178,92.92,174,87,175.42,79.75c2-10.45,8.3-17.57,18-21.67a12.29,12.29,0,0,1,5.37-.71c4,.25,5.85,4.05,3.73,7.44s-5.69,4.79-9.57,5c-2.12.09-4.27-.51-6.41-.59-.82,0-2.12.24-2.43.8-1.45,2.69-3.08,5.4-3.82,8.32-1.48,5.91,1.3,10.63,7.35,11.76a56.87,56.87,0,0,0,13.87.43c3.7-.22,7.35-1.3,11-2C213.16,88.41,213.8,88.41,214.43,88.35ZM185.74,67.67c5.23.17,9.66.33,13.29-2.75.79-.68,1-2.1,1.41-3.17-1-.35-2.12-1.08-3.12-1C192.66,61.17,189.37,64,185.74,67.67Z"/><path d="M415.07,79.24c-1.34-1.12-3.35-2-3.33-2.92,0-2.24,2.26-1.27,3.56-1.36a5.07,5.07,0,0,0,4.3-2.42c3.84-5.62,7.82-11.15,11.82-16.66,1-1.34,2.3-2.18,4.23-.59-2.52,2.85-5.14,5.5-7.37,8.45s-4.17,6.34-6.55,10l17.61-4,.24.65a48.33,48.33,0,0,1-5.7,2.88c-4.21,1.51-8.54,2.7-12.76,4.19a5.81,5.81,0,0,0-3,2.17A100.51,100.51,0,0,0,412.36,91c-1.13,2.72-.12,3.93,2.86,4,5.37.1,10.75,0,16.24.51a44.94,44.94,0,0,1-5.61,1.46c-3.79.49-7.6.87-11.42,1-4.25.18-6.5-2.5-5.21-6.57,1.07-3.36,2.88-6.49,4.42-9.7A22.78,22.78,0,0,1,415.07,79.24Z"/><path d="M494.44,59.28a68.28,68.28,0,0,1-3.75,7.8q-28.89,44.79-57.93,89.48a2.53,2.53,0,0,1-1.64,1.28c10.28-16.64,20.48-33.32,30.85-49.9s19.86-33.64,31.67-49.23Z"/><path d="M377.07,95.68c7.25-.83,11.41-6.77,16.65-10.22-2.87,5.46-11.05,12.57-16,13.7-4.21,1-5.92-.81-5.2-5.12,1.24-7.37,5.29-13.61,8.06-20.36,1.33-3.23,2.8-6.41,4.43-9.5.46-.88,1.7-1.34,2.59-2,.2,1.11.87,2.41.52,3.3-2.45,6.18-5.18,12.26-7.69,18.42-1.5,3.67-2.75,7.44-4.12,11.17Z"/><path d="M469.61,86c-3.8,1.13-6.66-.83-8.55-3.58-4.14-6.06-7.11-12.65-6.18-20.3a8.56,8.56,0,0,1,1.33-2.6,12,12,0,0,1,1.49,2.7c.87,3.35,1.44,6.8,2.4,10.12.67,2.3,1.9,4.43,2.72,6.7C464.39,83.4,465.56,84.66,469.61,86Z"/><path d="M394.5,47c.37,1.12,1.09,2.15.82,2.67a7.67,7.67,0,0,1-2.58,2.87c-.58.36-1.71-.16-2.59-.29.12-.81,0-1.89.42-2.38A27.25,27.25,0,0,1,394.5,47Z"/></g></g></svg>